<svg width="154" height="174" viewBox="0 0 154 174" fill="none" xmlns="http://www.w3.org/2000/svg">
<path d="M0 19.2C0 8.61 8.61 0 19.2 0H134.4C144.99 0 153.6 8.61 153.6 19.2V115.2C153.6 125.79 144.99 134.4 134.4 134.4H19.2C8.61 134.4 0 125.79 0 115.2V19.2ZM14.4 100.8V110.4C14.4 113.04 16.56 115.2 19.2 115.2H28.8C31.44 115.2 33.6 113.04 33.6 110.4V100.8C33.6 98.16 31.44 96 28.8 96H19.2C16.56 96 14.4 98.16 14.4 100.8ZM124.8 96C122.16 96 120 98.16 120 100.8V110.4C120 113.04 122.16 115.2 124.8 115.2H134.4C137.04 115.2 139.2 113.04 139.2 110.4V100.8C139.2 98.16 137.04 96 134.4 96H124.8ZM14.4 62.4V72C14.4 74.64 16.56 76.8 19.2 76.8H28.8C31.44 76.8 33.6 74.64 33.6 72V62.4C33.6 59.76 31.44 57.6 28.8 57.6H19.2C16.56 57.6 14.4 59.76 14.4 62.4ZM124.8 57.6C122.16 57.6 120 59.76 120 62.4V72C120 74.64 122.16 76.8 124.8 76.8H134.4C137.04 76.8 139.2 74.64 139.2 72V62.4C139.2 59.76 137.04 57.6 134.4 57.6H124.8ZM14.4 24V33.6C14.4 36.24 16.56 38.4 19.2 38.4H28.8C31.44 38.4 33.6 36.24 33.6 33.6V24C33.6 21.36 31.44 19.2 28.8 19.2H19.2C16.56 19.2 14.4 21.36 14.4 24ZM124.8 19.2C122.16 19.2 120 21.36 120 24V33.6C120 36.24 122.16 38.4 124.8 38.4H134.4C137.04 38.4 139.2 36.24 139.2 33.6V24C139.2 21.36 137.04 19.2 134.4 19.2H124.8ZM48 28.8V48C48 53.31 52.29 57.6 57.6 57.6H96C101.31 57.6 105.6 53.31 105.6 48V28.8C105.6 23.49 101.31 19.2 96 19.2H57.6C52.29 19.2 48 23.49 48 28.8ZM57.6 76.8C52.29 76.8 48 81.09 48 86.4V105.6C48 110.91 52.29 115.2 57.6 115.2H96C101.31 115.2 105.6 110.91 105.6 105.6V86.4C105.6 81.09 101.31 76.8 96 76.8H57.6Z" fill="white"/>
<path d="M6.89188 166V143.152H13.5479L19.2119 160.336H19.3399L25.0039 143.152H31.6599V166H27.0839V154.416C27.0839 153.669 27.0945 152.912 27.1159 152.144C27.1372 151.355 27.1692 150.608 27.2119 149.904C27.2545 149.2 27.2865 148.624 27.3079 148.176H27.1799L21.3879 166H16.8759L11.1159 148.144H10.9879C11.0305 148.571 11.0625 149.136 11.0839 149.84C11.1265 150.544 11.1585 151.312 11.1799 152.144C11.2225 152.955 11.2439 153.755 11.2439 154.544V166H6.89188ZM37.9426 173.68C37.4093 173.68 36.94 173.648 36.5346 173.584C36.1293 173.541 35.788 173.488 35.5106 173.424V169.616C35.7453 169.659 36.0226 169.701 36.3426 169.744C36.684 169.787 37.036 169.808 37.3986 169.808C38.38 169.808 39.1373 169.52 39.6706 168.944C40.204 168.368 40.6306 167.675 40.9506 166.864L41.3346 165.872L34.3906 148.528H39.4786L42.7746 158.512C42.924 158.981 43.0626 159.483 43.1906 160.016C43.34 160.528 43.4466 161.019 43.5106 161.488H43.6386C43.7026 161.04 43.8093 160.549 43.9586 160.016C44.108 159.483 44.268 158.981 44.4386 158.512L47.6706 148.528H52.6626L45.4946 167.6C45.0253 168.901 44.46 170 43.7986 170.896C43.1586 171.813 42.3693 172.507 41.4306 172.976C40.492 173.445 39.3293 173.68 37.9426 173.68ZM55.3919 166V143.152H62.0479L67.7119 160.336H67.8399L73.5039 143.152H80.1599V166H75.5839V154.416C75.5839 153.669 75.5945 152.912 75.6159 152.144C75.6372 151.355 75.6692 150.608 75.7119 149.904C75.7545 149.2 75.7865 148.624 75.8079 148.176H75.6799L69.8879 166H65.3759L59.6159 148.144H59.4879C59.5305 148.571 59.5625 149.136 59.5839 149.84C59.6265 150.544 59.6585 151.312 59.6799 152.144C59.7225 152.955 59.7439 153.755 59.7439 154.544V166H55.3919ZM92.8426 166.32C91.2 166.32 89.7386 165.968 88.4586 165.264C87.2 164.56 86.208 163.525 85.4826 162.16C84.7573 160.795 84.3946 159.152 84.3946 157.232C84.3946 154.331 85.152 152.101 86.6666 150.544C88.2026 148.987 90.2933 148.208 92.9386 148.208C94.5813 148.208 96.032 148.56 97.2906 149.264C98.5493 149.947 99.5413 150.96 100.267 152.304C100.992 153.648 101.355 155.291 101.355 157.232C101.355 159.152 101.003 160.795 100.299 162.16C99.616 163.525 98.6346 164.56 97.3546 165.264C96.096 165.968 94.592 166.32 92.8426 166.32ZM92.9066 162.64C93.7386 162.64 94.4106 162.427 94.9226 162C95.456 161.573 95.84 160.955 96.0746 160.144C96.3093 159.333 96.4266 158.363 96.4266 157.232C96.4266 156.08 96.2986 155.109 96.0426 154.32C95.808 153.531 95.4346 152.933 94.9226 152.528C94.4106 152.101 93.728 151.888 92.8746 151.888C91.616 151.888 90.7093 152.347 90.1546 153.264C89.6 154.181 89.3226 155.493 89.3226 157.2C89.3226 158.352 89.44 159.333 89.6746 160.144C89.9306 160.955 90.3146 161.573 90.8266 162C91.36 162.427 92.0533 162.64 92.9066 162.64ZM109.547 166L102.891 148.528H107.947L111.211 158.832C111.296 159.067 111.381 159.355 111.467 159.696C111.573 160.037 111.669 160.389 111.755 160.752C111.84 161.115 111.893 161.435 111.915 161.712H112.043C112.064 161.435 112.117 161.125 112.203 160.784C112.288 160.421 112.384 160.069 112.491 159.728C112.597 159.387 112.693 159.099 112.779 158.864L116.107 148.528H121.163L114.507 166H109.547ZM123.54 166V148.528H128.372V166H123.54ZM125.972 146.352C125.247 146.352 124.628 146.181 124.116 145.84C123.604 145.499 123.348 144.891 123.348 144.016C123.348 143.099 123.604 142.48 124.116 142.16C124.628 141.819 125.247 141.648 125.972 141.648C126.676 141.648 127.284 141.819 127.796 142.16C128.329 142.48 128.596 143.099 128.596 144.016C128.596 144.891 128.329 145.499 127.796 145.84C127.284 146.181 126.676 146.352 125.972 146.352ZM141.134 166.32C139.406 166.32 137.87 166 136.526 165.36C135.204 164.72 134.158 163.739 133.39 162.416C132.622 161.072 132.238 159.397 132.238 157.392C132.238 155.344 132.58 153.648 133.262 152.304C133.966 150.939 134.937 149.915 136.174 149.232C137.433 148.549 138.884 148.208 140.526 148.208C142.148 148.208 143.545 148.517 144.718 149.136C145.892 149.733 146.788 150.629 147.406 151.824C148.046 152.997 148.366 154.437 148.366 156.144V158.48H137.134C137.177 159.803 137.582 160.848 138.35 161.616C139.118 162.363 140.217 162.736 141.646 162.736C142.734 162.736 143.726 162.629 144.622 162.416C145.518 162.203 146.436 161.883 147.374 161.456V165.072C146.521 165.499 145.614 165.808 144.654 166C143.716 166.213 142.542 166.32 141.134 166.32ZM137.262 155.248H143.854C143.854 154.203 143.588 153.339 143.054 152.656C142.521 151.973 141.721 151.632 140.654 151.632C139.694 151.632 138.916 151.941 138.318 152.56C137.721 153.157 137.369 154.053 137.262 155.248Z" fill="white"/>
</svg>
