<svg width="154" height="167" viewBox="0 0 154 167" fill="none" xmlns="http://www.w3.org/2000/svg">
<path d="M0 19.2C0 8.61 8.61 0 19.2 0H134.4C144.99 0 153.6 8.61 153.6 19.2V115.2C153.6 125.79 144.99 134.4 134.4 134.4H19.2C8.61 134.4 0 125.79 0 115.2V19.2ZM14.4 100.8V110.4C14.4 113.04 16.56 115.2 19.2 115.2H28.8C31.44 115.2 33.6 113.04 33.6 110.4V100.8C33.6 98.16 31.44 96 28.8 96H19.2C16.56 96 14.4 98.16 14.4 100.8ZM124.8 96C122.16 96 120 98.16 120 100.8V110.4C120 113.04 122.16 115.2 124.8 115.2H134.4C137.04 115.2 139.2 113.04 139.2 110.4V100.8C139.2 98.16 137.04 96 134.4 96H124.8ZM14.4 62.4V72C14.4 74.64 16.56 76.8 19.2 76.8H28.8C31.44 76.8 33.6 74.64 33.6 72V62.4C33.6 59.76 31.44 57.6 28.8 57.6H19.2C16.56 57.6 14.4 59.76 14.4 62.4ZM124.8 57.6C122.16 57.6 120 59.76 120 62.4V72C120 74.64 122.16 76.8 124.8 76.8H134.4C137.04 76.8 139.2 74.64 139.2 72V62.4C139.2 59.76 137.04 57.6 134.4 57.6H124.8ZM14.4 24V33.6C14.4 36.24 16.56 38.4 19.2 38.4H28.8C31.44 38.4 33.6 36.24 33.6 33.6V24C33.6 21.36 31.44 19.2 28.8 19.2H19.2C16.56 19.2 14.4 21.36 14.4 24ZM124.8 19.2C122.16 19.2 120 21.36 120 24V33.6C120 36.24 122.16 38.4 124.8 38.4H134.4C137.04 38.4 139.2 36.24 139.2 33.6V24C139.2 21.36 137.04 19.2 134.4 19.2H124.8ZM48 28.8V48C48 53.31 52.29 57.6 57.6 57.6H96C101.31 57.6 105.6 53.31 105.6 48V28.8C105.6 23.49 101.31 19.2 96 19.2H57.6C52.29 19.2 48 23.49 48 28.8ZM57.6 76.8C52.29 76.8 48 81.09 48 86.4V105.6C48 110.91 52.29 115.2 57.6 115.2H96C101.31 115.2 105.6 110.91 105.6 105.6V86.4C105.6 81.09 101.31 76.8 96 76.8H57.6Z" fill="white"/>
<path d="M26.5086 166V148.528H31.3406V166H26.5086ZM28.9406 146.352C28.2153 146.352 27.5966 146.181 27.0846 145.84C26.5726 145.499 26.3166 144.891 26.3166 144.016C26.3166 143.099 26.5726 142.48 27.0846 142.16C27.5966 141.819 28.2153 141.648 28.9406 141.648C29.6446 141.648 30.2526 141.819 30.7646 142.16C31.298 142.48 31.5646 143.099 31.5646 144.016C31.5646 144.891 31.298 145.499 30.7646 145.84C30.2526 146.181 29.6446 146.352 28.9406 146.352ZM36.4231 166V143.152H43.0791L48.7431 160.336H48.8711L54.5351 143.152H61.1911V166H56.6151V154.416C56.6151 153.669 56.6258 152.912 56.6471 152.144C56.6685 151.355 56.7005 150.608 56.7431 149.904C56.7858 149.2 56.8178 148.624 56.8391 148.176H56.7111L50.9191 166H46.4071L40.6471 148.144H40.5191C40.5618 148.571 40.5938 149.136 40.6151 149.84C40.6578 150.544 40.6898 151.312 40.7111 152.144C40.7538 152.955 40.7751 153.755 40.7751 154.544V166H36.4231ZM73.8739 166.32C72.2312 166.32 70.7699 165.968 69.4899 165.264C68.2312 164.56 67.2392 163.525 66.5139 162.16C65.7885 160.795 65.4259 159.152 65.4259 157.232C65.4259 154.331 66.1832 152.101 67.6979 150.544C69.2339 148.987 71.3245 148.208 73.9699 148.208C75.6125 148.208 77.0632 148.56 78.3219 149.264C79.5805 149.947 80.5725 150.96 81.2979 152.304C82.0232 153.648 82.3859 155.291 82.3859 157.232C82.3859 159.152 82.0339 160.795 81.3299 162.16C80.6472 163.525 79.6659 164.56 78.3859 165.264C77.1272 165.968 75.6232 166.32 73.8739 166.32ZM73.9379 162.64C74.7699 162.64 75.4419 162.427 75.9539 162C76.4872 161.573 76.8712 160.955 77.1059 160.144C77.3405 159.333 77.4579 158.363 77.4579 157.232C77.4579 156.08 77.3299 155.109 77.0739 154.32C76.8392 153.531 76.4659 152.933 75.9539 152.528C75.4419 152.101 74.7592 151.888 73.9059 151.888C72.6472 151.888 71.7405 152.347 71.1859 153.264C70.6312 154.181 70.3539 155.493 70.3539 157.2C70.3539 158.352 70.4712 159.333 70.7059 160.144C70.9619 160.955 71.3459 161.573 71.8579 162C72.3912 162.427 73.0845 162.64 73.9379 162.64ZM90.5779 166L83.9219 148.528H88.9779L92.2419 158.832C92.3272 159.067 92.4125 159.355 92.4979 159.696C92.6045 160.037 92.7005 160.389 92.7859 160.752C92.8712 161.115 92.9245 161.435 92.9459 161.712H93.0739C93.0952 161.435 93.1485 161.125 93.2339 160.784C93.3192 160.421 93.4152 160.069 93.5219 159.728C93.6285 159.387 93.7245 159.099 93.8099 158.864L97.1379 148.528H102.194L95.5379 166H90.5779ZM104.571 166V148.528H109.403V166H104.571ZM107.003 146.352C106.278 146.352 105.659 146.181 105.147 145.84C104.635 145.499 104.379 144.891 104.379 144.016C104.379 143.099 104.635 142.48 105.147 142.16C105.659 141.819 106.278 141.648 107.003 141.648C107.707 141.648 108.315 141.819 108.827 142.16C109.36 142.48 109.627 143.099 109.627 144.016C109.627 144.891 109.36 145.499 108.827 145.84C108.315 146.181 107.707 146.352 107.003 146.352ZM122.166 166.32C120.438 166.32 118.902 166 117.558 165.36C116.235 164.72 115.19 163.739 114.422 162.416C113.654 161.072 113.27 159.397 113.27 157.392C113.27 155.344 113.611 153.648 114.294 152.304C114.998 150.939 115.968 149.915 117.206 149.232C118.464 148.549 119.915 148.208 121.558 148.208C123.179 148.208 124.576 148.517 125.75 149.136C126.923 149.733 127.819 150.629 128.438 151.824C129.078 152.997 129.398 154.437 129.398 156.144V158.48H118.166C118.208 159.803 118.614 160.848 119.382 161.616C120.15 162.363 121.248 162.736 122.678 162.736C123.766 162.736 124.758 162.629 125.654 162.416C126.55 162.203 127.467 161.883 128.406 161.456V165.072C127.552 165.499 126.646 165.808 125.686 166C124.747 166.213 123.574 166.32 122.166 166.32ZM118.294 155.248H124.886C124.886 154.203 124.619 153.339 124.086 152.656C123.552 151.973 122.752 151.632 121.686 151.632C120.726 151.632 119.947 151.941 119.35 152.56C118.752 153.157 118.4 154.053 118.294 155.248Z" fill="white"/>
</svg>
