<svg width="80" height="80" viewBox="0 0 80 80" fill="none" xmlns="http://www.w3.org/2000/svg">
<rect width="80" height="80" rx="40" fill="white"/>
<g clip-path="url(#clip0_2_391)">
<path d="M39.696 39.224C43.4387 39.224 47.0282 37.7372 49.6747 35.0907C52.3212 32.4442 53.808 28.8547 53.808 25.112C53.808 21.3693 52.3212 17.7798 49.6747 15.1333C47.0282 12.4868 43.4387 11 39.696 11C35.9533 11 32.3638 12.4868 29.7173 15.1333C27.0708 17.7798 25.584 21.3693 25.584 25.112C25.584 28.8547 27.0708 32.4442 29.7173 35.0907C32.3638 37.7372 35.9533 39.224 39.696 39.224ZM34.6576 44.516C23.7979 44.516 15 53.3139 15 64.1736C15 65.9817 16.4663 67.448 18.2744 67.448H61.1176C62.9257 67.448 64.392 65.9817 64.392 64.1736C64.392 53.3139 55.5941 44.516 44.7344 44.516H34.6576Z" fill="black"/>
</g>
<defs>
<clipPath id="clip0_2_391">
<rect width="49.392" height="56.448" fill="white" transform="translate(15 11)"/>
</clipPath>
</defs>
</svg>
